# xmcd CD database file
#
# Track frame offsets:
#	150
#	12481
#	27221
#	44265
#
# Disc length: 759 seconds
#
# Revision: 0
# Processed by: cddbd v1.5.2PL0 Copyright (c) Steve Scherf et al.
# Submitted via: CDex 2.13
#
DISCID=2802f504
DTITLE=Blechsalat - blechsalat
DYEAR=2018
DGENRE=Jazz
TTITLE0=mashin (Bilderbuch)
TTITLE1=don't gimme that (the bosshoss)
TTITLE2=get lucky (daft punk)
TTITLE3=da paots (blechsalat)
EXTD=YEAR: 2018
EXTT0=
EXTT1=
EXTT2=
EXTT3=
PLAYORDER=
